<svg xmlns="http://www.w3.org/2000/svg" width="430" height="430" fill="none" viewBox="0 0 430 430"><g stroke="#121331" stroke-linecap="round" stroke-linejoin="round" stroke-miterlimit="14" stroke-width="18"><path d="M336.45 168.975c-17.85-42-59.5-71.4-108.15-71.4-45.5 0-84.7 25.9-104.3 63.35-3.5-1.05-7.35-1.75-11.2-1.75-20.3 0-36.75 16.45-36.75 36.75 0 2.8.35 5.25.7 8.05-22.05 10.85-36.75 33.95-36.75 60.2 0 37.8 30.8 68.6 68.6 68.6h197.05c46.55 0 84.35-38.15 84.35-85.05 0-35.7-22.05-66.5-53.55-78.75"/><path d="M146.75 183.325c-5.25-14-18.55-24.15-34.65-24.15m224 8.75c6.3 14.35 9.8 30.1 9.8 46.9 0 0 0 12.6-4.2 27.65"/></g></svg>